<svg width="16" height="16" viewBox="0 0 16 16" fill="none" xmlns="http://www.w3.org/2000/svg">
<path d="M8 2.5C8 2.36739 7.94732 2.24021 7.85355 2.14645C7.75979 2.05268 7.63261 2 7.5 2C7.36739 2 7.24021 2.05268 7.14645 2.14645C7.05268 2.24021 7 2.36739 7 2.5V7H2.5C2.36739 7 2.24021 7.05268 2.14645 7.14645C2.05268 7.24021 2 7.36739 2 7.5C2 7.63261 2.05268 7.75979 2.14645 7.85355C2.24021 7.94732 2.36739 8 2.5 8H7V12.5C7 12.6326 7.05268 12.7598 7.14645 12.8536C7.24021 12.9473 7.36739 13 7.5 13C7.63261 13 7.75979 12.9473 7.85355 12.8536C7.94732 12.7598 8 12.6326 8 12.5V8H12.5C12.6326 8 12.7598 7.94732 12.8536 7.85355C12.9473 7.75979 13 7.63261 13 7.5C13 7.36739 12.9473 7.24021 12.8536 7.14645C12.7598 7.05268 12.6326 7 12.5 7H8V2.5Z" fill="#605BFF"/>
</svg>
