<svg width="44" height="44" viewBox="0 0 44 44" fill="none" xmlns="http://www.w3.org/2000/svg">
<g opacity="0.5">
<path d="M22.0001 12C21.3331 12 20.6801 12.065 20.0501 12.19C19.8549 12.2285 19.683 12.3429 19.5722 12.5081C19.4613 12.6733 19.4207 12.8758 19.4591 13.071C19.4976 13.2662 19.612 13.4381 19.7772 13.549C19.9424 13.6598 20.1449 13.7005 20.3401 13.662C21.4361 13.4449 22.5641 13.4449 23.6601 13.662C23.8553 13.7005 24.0578 13.6598 24.223 13.549C24.3882 13.4381 24.5027 13.2662 24.5411 13.071C24.5796 12.8758 24.5389 12.6733 24.4281 12.5081C24.3172 12.3429 24.1453 12.2285 23.9501 12.19C23.3079 12.0633 22.6548 11.9996 22.0001 12ZM17.2781 14.931C17.441 14.8193 17.5533 14.6478 17.5905 14.4539C17.6277 14.2599 17.5869 14.059 17.477 13.895C17.367 13.7309 17.1968 13.6168 17.0032 13.5775C16.8096 13.5382 16.6084 13.5768 16.4431 13.685C15.3525 14.4154 14.4155 15.3524 13.6851 16.443C13.629 16.5248 13.5897 16.6169 13.5695 16.714C13.5492 16.811 13.5484 16.9112 13.5671 17.0086C13.5858 17.1059 13.6236 17.1987 13.6784 17.2813C13.7331 17.364 13.8037 17.435 13.8861 17.4902C13.9685 17.5454 14.061 17.5838 14.1583 17.603C14.2556 17.6222 14.3557 17.6219 14.4529 17.6022C14.5501 17.5824 14.6424 17.5436 14.7245 17.488C14.8066 17.4323 14.8768 17.361 14.9311 17.278C15.5525 16.3495 16.3499 15.5518 17.2781 14.93V14.931ZM27.5571 13.685C27.3919 13.5768 27.1906 13.5382 26.997 13.5775C26.8035 13.6168 26.6332 13.7309 26.5233 13.895C26.4133 14.059 26.3725 14.2599 26.4097 14.4539C26.447 14.6478 26.5592 14.8193 26.7221 14.931C27.6502 15.5525 28.4476 16.3499 29.0691 17.278C29.1234 17.361 29.1937 17.4323 29.2758 17.488C29.3578 17.5436 29.4501 17.5824 29.5473 17.6022C29.6445 17.6219 29.7446 17.6222 29.8419 17.603C29.9392 17.5838 30.0317 17.5454 30.1141 17.4902C30.1965 17.435 30.2671 17.364 30.3219 17.2813C30.3766 17.1987 30.4145 17.1059 30.4331 17.0086C30.4518 16.9112 30.451 16.811 30.4308 16.714C30.4105 16.6169 30.3712 16.5248 30.3151 16.443C29.5847 15.3524 28.6477 14.4154 27.5571 13.685ZM31.8101 20.049C31.7715 19.8538 31.657 19.6819 31.4917 19.5712C31.3263 19.4604 31.1238 19.4199 30.9286 19.4585C30.7334 19.4971 30.5615 19.6116 30.4508 19.777C30.3401 19.9423 30.2995 20.1448 30.3381 20.34C30.5552 21.436 30.5552 22.564 30.3381 23.66C30.2997 23.8552 30.3403 24.0577 30.4512 24.2229C30.562 24.3881 30.7339 24.5025 30.9291 24.541C31.1243 24.5795 31.3268 24.5388 31.492 24.428C31.6572 24.3171 31.7717 24.1452 31.8101 23.95C32.0648 22.6625 32.0648 21.3375 31.8101 20.05V20.049ZM13.6621 20.34C13.7006 20.1448 13.6599 19.9423 13.5491 19.7771C13.4382 19.6119 13.2663 19.4975 13.0711 19.459C12.8759 19.4205 12.6734 19.4612 12.5082 19.572C12.343 19.6829 12.2286 19.8548 12.1901 20.05C11.9353 21.3375 11.9353 22.6625 12.1901 23.95C12.2286 24.1452 12.343 24.3171 12.5082 24.428C12.6734 24.5388 12.8759 24.5795 13.0711 24.541C13.2663 24.5025 13.4382 24.3881 13.5491 24.2229C13.6599 24.0577 13.7006 23.8552 13.6621 23.66C13.4451 22.564 13.4451 21.436 13.6621 20.34ZM14.9321 26.722C14.8214 26.5566 14.6495 26.442 14.4543 26.4034C14.2591 26.3648 14.0565 26.4053 13.8911 26.516C13.7258 26.6267 13.6111 26.7986 13.5725 26.9938C13.5339 27.1891 13.5744 27.3916 13.6851 27.557C14.4155 28.6476 15.3525 29.5846 16.4431 30.315C16.6084 30.4232 16.8096 30.4618 17.0032 30.4225C17.1968 30.3832 17.367 30.2691 17.477 30.105C17.5869 29.941 17.6277 29.7401 17.5905 29.5462C17.5533 29.3522 17.441 29.1807 17.2781 29.069C16.35 28.4475 15.5536 27.6501 14.9321 26.722ZM30.3151 27.557C30.4233 27.3917 30.4619 27.1905 30.4226 26.9969C30.3833 26.8034 30.2692 26.6331 30.1052 26.5232C29.9411 26.4132 29.7402 26.3724 29.5463 26.4096C29.3523 26.4469 29.1808 26.5591 29.0691 26.722C28.4476 27.6501 27.6502 28.4475 26.7221 29.069C26.6391 29.1233 26.5678 29.1936 26.5121 29.2756C26.4565 29.3577 26.4177 29.45 26.3979 29.5472C26.3782 29.6444 26.3779 29.7445 26.3971 29.8418C26.4164 29.9391 26.4547 30.0316 26.5099 30.114C26.5651 30.1964 26.6361 30.267 26.7188 30.3218C26.8015 30.3765 26.8942 30.4143 26.9916 30.433C27.089 30.4517 27.1891 30.4509 27.2862 30.4307C27.3832 30.4104 27.4753 30.3711 27.5571 30.315C28.6477 29.5846 29.5847 28.6476 30.3151 27.557ZM20.3401 30.338C20.2435 30.319 20.144 30.3191 20.0474 30.3385C19.9508 30.3579 19.859 30.3962 19.7772 30.451C19.6954 30.5059 19.6252 30.5764 19.5706 30.6584C19.516 30.7404 19.4782 30.8323 19.4591 30.929C19.4401 31.0257 19.4403 31.1251 19.4597 31.2217C19.479 31.3183 19.5173 31.4101 19.5722 31.4919C19.627 31.5737 19.6975 31.6439 19.7795 31.6985C19.8615 31.7531 19.9535 31.791 20.0501 31.81C21.3376 32.0647 22.6626 32.0647 23.9501 31.81C24.0468 31.791 24.1387 31.7531 24.2207 31.6985C24.3027 31.6439 24.3732 31.5737 24.4281 31.4919C24.483 31.4101 24.5212 31.3183 24.5406 31.2217C24.56 31.1251 24.5602 31.0257 24.5411 30.929C24.5221 30.8323 24.4842 30.7404 24.4296 30.6584C24.375 30.5764 24.3048 30.5059 24.223 30.451C24.1412 30.3962 24.0494 30.3579 23.9528 30.3385C23.8562 30.3191 23.7568 30.319 23.6601 30.338C22.5641 30.5551 21.4361 30.5551 20.3401 30.338ZM29.2501 22C29.2501 22.9521 29.0626 23.8948 28.6982 24.7745C28.3339 25.6541 27.7999 26.4533 27.1266 27.1265C26.4534 27.7998 25.6542 28.3338 24.7746 28.6981C23.895 29.0625 22.9522 29.25 22.0001 29.25C21.048 29.25 20.1053 29.0625 19.2257 28.6981C18.346 28.3338 17.5468 27.7998 16.8736 27.1265C16.2004 26.4533 15.6663 25.6541 15.302 24.7745C14.9376 23.8948 14.7501 22.9521 14.7501 22C14.7501 20.0772 15.514 18.2331 16.8736 16.8735C18.2332 15.5138 20.0773 14.75 22.0001 14.75C23.9229 14.75 25.767 15.5138 27.1266 16.8735C28.4863 18.2331 29.2501 20.0772 29.2501 22ZM20.8561 18.154C20.6658 18.0485 20.4513 17.9946 20.2338 17.9974C20.0163 18.0002 19.8033 18.0598 19.6158 18.1702C19.4284 18.2806 19.273 18.438 19.165 18.6268C19.057 18.8157 19.0002 19.0295 19.0001 19.247V24.745C19.0002 24.9625 19.057 25.1763 19.165 25.3652C19.273 25.554 19.4284 25.7114 19.6158 25.8218C19.8033 25.9322 20.0163 25.9918 20.2338 25.9946C20.4513 25.9975 20.6658 25.9435 20.8561 25.838L26.6131 22.652C26.73 22.587 26.8273 22.492 26.8951 22.3767C26.9629 22.2615 26.9987 22.1302 26.9987 21.9965C26.9987 21.8628 26.9629 21.7315 26.8951 21.6163C26.8273 21.501 26.73 21.406 26.6131 21.341L20.8561 18.154Z" fill="#1E193E"/>
</g>
</svg>
