<svg width="44" height="44" viewBox="0 0 44 44" fill="none" xmlns="http://www.w3.org/2000/svg">
<g opacity="0.5">
<g clip-path="url(#clip0_2_17)">
<path d="M21.2501 15.25C21.2501 14.6567 21.426 14.0766 21.7556 13.5833C22.0853 13.0899 22.5538 12.7054 23.102 12.4784C23.6502 12.2513 24.2534 12.1919 24.8353 12.3076C25.4173 12.4234 25.9518 12.7091 26.3714 13.1287C26.7909 13.5482 27.0767 14.0828 27.1924 14.6647C27.3082 15.2467 27.2488 15.8499 27.0217 16.3981C26.7946 16.9462 26.4101 17.4148 25.9168 17.7444C25.4234 18.0741 24.8434 18.25 24.2501 18.25C23.4544 18.25 22.6913 17.9339 22.1287 17.3713C21.5661 16.8087 21.2501 16.0457 21.2501 15.25ZM30.9326 22.195C30.892 22.105 30.8342 22.0239 30.7623 21.9564C30.6903 21.8888 30.6058 21.8361 30.5135 21.8013C30.4212 21.7664 30.3229 21.7502 30.2243 21.7534C30.1257 21.7566 30.0287 21.7792 29.9388 21.82C29.9154 21.8313 27.4347 22.825 23.1719 19.9272C18.2697 16.5953 14.9219 19.1988 14.7804 19.3113C14.7 19.3716 14.6327 19.4475 14.5822 19.5343C14.5318 19.6212 14.4993 19.7174 14.4867 19.817C14.4742 19.9167 14.4817 20.0179 14.509 20.1146C14.5363 20.2113 14.5827 20.3015 14.6456 20.3799C14.7084 20.4583 14.7863 20.5233 14.8747 20.571C14.9631 20.6187 15.0602 20.6481 15.1603 20.6576C15.2603 20.667 15.3612 20.6563 15.457 20.626C15.5527 20.5957 15.6415 20.5465 15.7179 20.4813C15.7422 20.4616 18.0729 18.6531 21.7244 20.7878C21.326 22.0394 20.5282 23.7709 19.3572 25.1941C17.6172 27.3016 15.5032 28.2466 13.076 28.0066C12.878 27.9865 12.6801 28.046 12.5259 28.1719C12.3717 28.2978 12.2738 28.4798 12.2538 28.6778C12.2338 28.8759 12.2933 29.0737 12.4192 29.2279C12.545 29.3821 12.727 29.48 12.9251 29.5C13.216 29.5295 13.5082 29.5442 13.8007 29.5441C16.3676 29.5441 18.6757 28.3834 20.516 26.1522C20.5694 26.0875 20.6229 26.0209 20.6744 25.9553C22.4979 26.4334 25.7501 27.8406 25.7501 31.75C25.7501 31.9489 25.8291 32.1397 25.9697 32.2803C26.1104 32.421 26.3011 32.5 26.5001 32.5C26.699 32.5 26.8897 32.421 27.0304 32.2803C27.171 32.1397 27.2501 31.9489 27.2501 31.75C27.2501 29.4391 26.3051 27.4984 24.5172 26.1381C23.6295 25.4819 22.637 24.9807 21.5819 24.6559C22.1709 23.6997 22.6568 22.6837 23.0313 21.625C25.4819 23.1334 27.4226 23.5 28.721 23.5C29.8629 23.5 30.5079 23.2188 30.5651 23.1925C30.6548 23.1513 30.7356 23.0928 30.8027 23.0203C30.8698 22.9478 30.9219 22.8628 30.9561 22.7701C30.9902 22.6774 31.0057 22.5789 31.0017 22.4802C30.9976 22.3815 30.9741 22.2846 30.9326 22.195Z" fill="#1E193E"/>
</g>
</g>
<defs>
<clipPath id="clip0_2_17">
<rect width="24" height="24" fill="white" transform="translate(10 10)"/>
</clipPath>
</defs>
</svg>
