<svg width="44" height="44" viewBox="0 0 44 44" fill="none" xmlns="http://www.w3.org/2000/svg">
<g opacity="0.5">
<path d="M24.754 20C25.72 20 26.504 20.784 26.504 21.75V26.499C26.504 27.6927 26.0298 28.8376 25.1857 29.6817C24.3416 30.5258 23.1967 31 22.003 31C20.8093 31 19.6644 30.5258 18.8203 29.6817C17.9762 28.8376 17.502 27.6927 17.502 26.499V21.75C17.502 20.784 18.285 20 19.252 20H24.754ZM17.131 20C16.7708 20.4335 16.5542 20.9681 16.511 21.53L16.501 21.75V26.499C16.501 27.346 16.693 28.148 17.035 28.864C16.4423 29.0226 15.821 29.0427 15.2193 28.9228C14.6176 28.8029 14.0514 28.5463 13.5647 28.1727C13.078 27.7991 12.6838 27.3185 12.4125 26.7682C12.1411 26.2179 12 25.6126 12 24.999V21.75C12 21.3108 12.1652 20.8877 12.4627 20.5646C12.7602 20.2415 13.1683 20.0421 13.606 20.006L13.75 20H17.131ZM26.875 20H30.25C31.216 20 32 20.784 32 21.75V25C32.0001 25.6132 31.8593 26.2182 31.5884 26.7682C31.3175 27.3183 30.9237 27.7987 30.4376 28.1724C29.9514 28.546 29.3858 28.8029 28.7846 28.9232C28.1833 29.0435 27.5625 29.0239 26.97 28.866C27.27 28.238 27.454 27.546 27.495 26.814L27.504 26.499V21.75C27.504 21.085 27.269 20.475 26.875 20ZM22 13C22.7956 13 23.5587 13.3161 24.1213 13.8787C24.6839 14.4413 25 15.2044 25 16C25 16.7956 24.6839 17.5587 24.1213 18.1213C23.5587 18.6839 22.7956 19 22 19C21.2044 19 20.4413 18.6839 19.8787 18.1213C19.3161 17.5587 19 16.7956 19 16C19 15.2044 19.3161 14.4413 19.8787 13.8787C20.4413 13.3161 21.2044 13 22 13ZM28.5 14C29.163 14 29.7989 14.2634 30.2678 14.7322C30.7366 15.2011 31 15.837 31 16.5C31 17.163 30.7366 17.7989 30.2678 18.2678C29.7989 18.7366 29.163 19 28.5 19C27.837 19 27.2011 18.7366 26.7322 18.2678C26.2634 17.7989 26 17.163 26 16.5C26 15.837 26.2634 15.2011 26.7322 14.7322C27.2011 14.2634 27.837 14 28.5 14ZM15.5 14C16.163 14 16.7989 14.2634 17.2678 14.7322C17.7366 15.2011 18 15.837 18 16.5C18 17.163 17.7366 17.7989 17.2678 18.2678C16.7989 18.7366 16.163 19 15.5 19C14.837 19 14.2011 18.7366 13.7322 18.2678C13.2634 17.7989 13 17.163 13 16.5C13 15.837 13.2634 15.2011 13.7322 14.7322C14.2011 14.2634 14.837 14 15.5 14Z" fill="#1E193E"/>
</g>
</svg>
