<svg width="44" height="44" viewBox="0 0 44 44" fill="none" xmlns="http://www.w3.org/2000/svg">
<g opacity="0.5">
<path d="M26.0001 26.25C26.0001 27.112 25.6577 27.9386 25.0482 28.5481C24.4387 29.1576 23.612 29.5 22.7501 29.5H22.2711C22.7534 28.574 23.0045 27.5451 23.0031 26.501C23.0031 24.481 22.3091 22.862 20.6371 21.484C19.4721 20.524 18.4111 20.138 17.0561 20.024C16.1346 19.9438 15.2066 20.0617 14.3346 20.37C13.4625 20.6782 12.6665 21.1695 12.0001 21.811V17.749C12.0004 16.8872 12.3429 16.0608 12.9523 15.4515C13.5618 14.8423 14.3883 14.5 15.2501 14.5H22.7501C23.612 14.5 24.4387 14.8424 25.0482 15.4519C25.6577 16.0614 26.0001 16.888 26.0001 17.75V26.25ZM31.7621 15.893C31.9158 16.0739 32.0002 16.3036 32.0001 16.541V27.459C32.0002 27.65 31.9455 27.837 31.8427 27.9979C31.7399 28.1588 31.5931 28.2869 31.4198 28.367C31.2464 28.4472 31.0538 28.476 30.8646 28.4501C30.6754 28.4243 30.4975 28.3447 30.3521 28.221L27.0001 25.37V18.628L30.3521 15.779C30.4521 15.6939 30.568 15.6293 30.693 15.5889C30.818 15.5486 30.9498 15.5333 31.0807 15.5439C31.2116 15.5545 31.3392 15.5907 31.4561 15.6506C31.573 15.7105 31.677 15.7929 31.7621 15.893ZM20.0001 22.256C19.0159 21.442 17.7782 20.9978 16.5011 21C15.5434 20.9998 14.6022 21.2496 13.7707 21.7247C12.9391 22.1998 12.2461 22.8838 11.76 23.709C11.2739 24.5342 11.0117 25.472 10.9992 26.4296C10.9868 27.3872 11.2246 28.3315 11.6891 29.169L11.0231 31.355C10.9964 31.4418 10.9939 31.5342 11.0158 31.6223C11.0376 31.7104 11.0831 31.7908 11.1472 31.8551C11.2113 31.9193 11.2918 31.9649 11.3798 31.9869C11.4679 32.0089 11.5603 32.0065 11.6471 31.98L13.8341 31.314C15.0342 31.9817 16.4408 32.1763 17.7771 31.8596C19.1135 31.5429 20.2831 30.7377 21.0559 29.6024C21.8288 28.4671 22.149 27.0837 21.9536 25.7243C21.7582 24.3649 21.0614 23.1277 20.0001 22.256ZM14.5001 26C14.3675 26 14.2403 25.9473 14.1465 25.8536C14.0528 25.7598 14.0001 25.6326 14.0001 25.5C14.0001 25.3674 14.0528 25.2402 14.1465 25.1464C14.2403 25.0527 14.3675 25 14.5001 25H18.5021C18.6347 25 18.7619 25.0527 18.8556 25.1464C18.9494 25.2402 19.0021 25.3674 19.0021 25.5C19.0021 25.6326 18.9494 25.7598 18.8556 25.8536C18.7619 25.9473 18.6347 26 18.5021 26H14.5001ZM16.5011 28H14.5011C14.3685 28 14.2413 27.9473 14.1475 27.8536C14.0538 27.7598 14.0011 27.6326 14.0011 27.5C14.0011 27.3674 14.0538 27.2402 14.1475 27.1464C14.2413 27.0527 14.3685 27 14.5011 27H16.5011C16.6337 27 16.7609 27.0527 16.8546 27.1464C16.9484 27.2402 17.0011 27.3674 17.0011 27.5C17.0011 27.6326 16.9484 27.7598 16.8546 27.8536C16.7609 27.9473 16.6337 28 16.5011 28Z" fill="#1E193E"/>
</g>
</svg>
