<svg width="40" height="40" viewBox="0 0 40 40" fill="none" xmlns="http://www.w3.org/2000/svg">
<rect width="40" height="40" rx="20" fill="#605BFF" fill-opacity="0.2"/>
<path d="M16.808 28.016L14.856 25.904C14.376 26.0427 13.848 26.112 13.272 26.112C12.2373 26.112 11.2827 25.872 10.408 25.392C9.544 24.9013 8.856 24.224 8.344 23.36C7.84267 22.4853 7.592 21.504 7.592 20.416C7.592 19.328 7.84267 18.352 8.344 17.488C8.856 16.624 9.544 15.952 10.408 15.472C11.2827 14.9813 12.2373 14.736 13.272 14.736C14.3173 14.736 15.272 14.9813 16.136 15.472C17.0107 15.952 17.6987 16.624 18.2 17.488C18.7013 18.352 18.952 19.328 18.952 20.416C18.952 21.44 18.728 22.368 18.28 23.2C17.8427 24.0213 17.2347 24.6827 16.456 25.184L19.128 28.016H16.808ZM9.464 20.416C9.464 21.2373 9.624 21.9627 9.944 22.592C10.2747 23.2107 10.728 23.6907 11.304 24.032C11.88 24.3627 12.536 24.528 13.272 24.528C14.008 24.528 14.664 24.3627 15.24 24.032C15.816 23.6907 16.264 23.2107 16.584 22.592C16.9147 21.9627 17.08 21.2373 17.08 20.416C17.08 19.5947 16.9147 18.8747 16.584 18.256C16.264 17.6373 15.816 17.1627 15.24 16.832C14.664 16.5013 14.008 16.336 13.272 16.336C12.536 16.336 11.88 16.5013 11.304 16.832C10.728 17.1627 10.2747 17.6373 9.944 18.256C9.624 18.8747 9.464 19.5947 9.464 20.416ZM28.6978 23.728H24.0417L23.2418 26H21.3377L25.3218 14.864H27.4338L31.4178 26H29.4978L28.6978 23.728ZM28.1858 22.24L26.3777 17.072L24.5538 22.24H28.1858Z" fill="#1E193E"/>
</svg>
