<svg width="24" height="25" viewBox="0 0 24 25" fill="none" xmlns="http://www.w3.org/2000/svg">
<path d="M11.31 15.998C11.4814 15.4696 11.72 14.9655 12.02 14.498H6.25C5.65326 14.498 5.08097 14.7351 4.65901 15.157C4.23705 15.579 4 16.1513 4 16.748V17.325C4 18.218 4.319 19.082 4.898 19.761C6.311 21.415 8.389 22.313 11.09 22.474L11.541 20.994C9.039 20.914 7.222 20.172 6.039 18.787C5.69094 18.3794 5.4998 17.861 5.5 17.325V16.747C5.50027 16.5483 5.5794 16.3578 5.72002 16.2173C5.86065 16.0769 6.05126 15.998 6.25 15.998H11.31ZM11.999 2.5C13.3253 2.5 14.5974 3.02689 15.5352 3.96476C16.4731 4.90263 17 6.17465 17 7.501C17 8.82735 16.4731 10.0994 15.5352 11.0372C14.5974 11.9751 13.3253 12.502 11.999 12.502C10.6727 12.502 9.40063 11.9751 8.46276 11.0372C7.52489 10.0994 6.998 8.82735 6.998 7.501C6.998 6.17465 7.52489 4.90263 8.46276 3.96476C9.40063 3.02689 10.6727 2.5 11.999 2.5ZM11.999 4C11.5392 4 11.084 4.09056 10.6592 4.2665C10.2345 4.44244 9.84852 4.70032 9.52342 5.02542C9.19832 5.35052 8.94044 5.73646 8.7645 6.16123C8.58856 6.58599 8.498 7.04124 8.498 7.501C8.498 7.96076 8.58856 8.41601 8.7645 8.84077C8.94044 9.26554 9.19832 9.65148 9.52342 9.97658C9.84852 10.3017 10.2345 10.5596 10.6592 10.7355C11.084 10.9114 11.5392 11.002 11.999 11.002C12.9275 11.002 13.818 10.6331 14.4746 9.97658C15.1311 9.32002 15.5 8.42952 15.5 7.501C15.5 6.57248 15.1311 5.68198 14.4746 5.02542C13.818 4.36885 12.9275 4 11.999 4ZM23 18C23.0003 18.9576 22.7506 19.8988 22.2756 20.7303C21.8006 21.5619 21.1168 22.255 20.2917 22.7411C19.4666 23.2273 18.529 23.4897 17.5714 23.5023C16.6138 23.5149 15.6696 23.2773 14.832 22.813L12.645 23.478C12.5583 23.5044 12.466 23.5068 12.3781 23.4848C12.2902 23.4628 12.2098 23.4173 12.1457 23.3533C12.0817 23.2892 12.0362 23.2088 12.0142 23.1209C11.9922 23.033 11.9946 22.9407 12.021 22.854L12.687 20.667C12.2802 19.9326 12.0469 19.1149 12.0049 18.2764C11.9629 17.4379 12.1134 16.601 12.4448 15.8296C12.7763 15.0583 13.2799 14.373 13.917 13.8264C14.5542 13.2797 15.308 12.8862 16.1208 12.6758C16.9335 12.4655 17.7836 12.4439 18.606 12.6129C19.4283 12.7818 20.2011 13.1367 20.8651 13.6505C21.5291 14.1642 22.0667 14.8231 22.4368 15.5766C22.8068 16.3302 22.9995 17.1585 23 17.998V18ZM15.498 16.5C15.3654 16.5 15.2382 16.5527 15.1444 16.6464C15.0507 16.7402 14.998 16.8674 14.998 17C14.998 17.1326 15.0507 17.2598 15.1444 17.3536C15.2382 17.4473 15.3654 17.5 15.498 17.5H19.5C19.6326 17.5 19.7598 17.4473 19.8536 17.3536C19.9473 17.2598 20 17.1326 20 17C20 16.8674 19.9473 16.7402 19.8536 16.6464C19.7598 16.5527 19.6326 16.5 19.5 16.5H15.5H15.498ZM14.998 19C14.998 19.1326 15.0507 19.2598 15.1444 19.3536C15.2382 19.4473 15.3654 19.5 15.498 19.5H17.498C17.6306 19.5 17.7578 19.4473 17.8516 19.3536C17.9453 19.2598 17.998 19.1326 17.998 19C17.998 18.8674 17.9453 18.7402 17.8516 18.6464C17.7578 18.5527 17.6306 18.5 17.498 18.5H15.498C15.3654 18.5 15.2382 18.5527 15.1444 18.6464C15.0507 18.7402 14.998 18.8674 14.998 19Z" fill="#1E193E"/>
</svg>
