<svg width="24" height="25" viewBox="0 0 24 25" fill="none" xmlns="http://www.w3.org/2000/svg">
<path d="M12 2.5C17.523 2.5 22 6.978 22 12.5C22 18.022 17.523 22.5 12 22.5C6.477 22.5 2 18.022 2 12.5C2 6.978 6.477 2.5 12 2.5ZM12 4.167C7.405 4.167 3.667 7.905 3.667 12.5C3.667 17.095 7.405 20.833 12 20.833C16.595 20.833 20.333 17.095 20.333 12.5C20.333 7.905 16.595 4.167 12 4.167ZM12 16C12.2652 16 12.5196 16.1054 12.7071 16.2929C12.8946 16.4804 13 16.7348 13 17C13 17.2652 12.8946 17.5196 12.7071 17.7071C12.5196 17.8946 12.2652 18 12 18C11.7348 18 11.4804 17.8946 11.2929 17.7071C11.1054 17.5196 11 17.2652 11 17C11 16.7348 11.1054 16.4804 11.2929 16.2929C11.4804 16.1054 11.7348 16 12 16ZM12 7.25C12.7293 7.25 13.4288 7.53973 13.9445 8.05546C14.4603 8.57118 14.75 9.27065 14.75 10C14.75 11.01 14.453 11.574 13.699 12.359L13.53 12.53C12.908 13.152 12.75 13.416 12.75 14C12.75 14.1989 12.671 14.3897 12.5303 14.5303C12.3897 14.671 12.1989 14.75 12 14.75C11.8011 14.75 11.6103 14.671 11.4697 14.5303C11.329 14.3897 11.25 14.1989 11.25 14C11.25 12.99 11.547 12.426 12.301 11.641L12.47 11.47C13.092 10.848 13.25 10.584 13.25 10C13.249 9.68028 13.1255 9.3731 12.9049 9.14165C12.6843 8.9102 12.3834 8.77208 12.0641 8.75568C11.7448 8.73929 11.4313 8.84587 11.1882 9.05351C10.9451 9.26115 10.7908 9.55406 10.757 9.872L10.75 10C10.75 10.1989 10.671 10.3897 10.5303 10.5303C10.3897 10.671 10.1989 10.75 10 10.75C9.80109 10.75 9.61032 10.671 9.46967 10.5303C9.32902 10.3897 9.25 10.1989 9.25 10C9.25 9.27065 9.53973 8.57118 10.0555 8.05546C10.5712 7.53973 11.2707 7.25 12 7.25Z" fill="#1E193E"/>
</svg>
